<?xml version="1.0" encoding="UTF-8"?>
<!DOCTYPE svg PUBLIC "-//W3C//DTD SVG 1.1//EN" "http://www.w3.org/Graphics/SVG/1.1/DTD/svg11.dtd">
<!-- Creator: CorelDRAW X8 -->
<svg xmlns="http://www.w3.org/2000/svg" xml:space="preserve" width="10.0615in" height="5.29154in" version="1.1" style="shape-rendering:geometricPrecision; text-rendering:geometricPrecision; image-rendering:optimizeQuality; fill-rule:evenodd; clip-rule:evenodd"
viewBox="0 0 10061 5292"
 xmlns:xlink="http://www.w3.org/1999/xlink">
 <defs>
  <style type="text/css">
   <![CDATA[
    .fil3 {fill:#FEFEFE}
    .fil2 {fill:#EF7F1A}
    .fil1 {fill:url(#id0)}
    .fil0 {fill:url(#id1);fill-rule:nonzero}
   ]]>
  </style>
  <linearGradient id="id0" gradientUnits="userSpaceOnUse" x1="6581.02" y1="1358.55" x2="3049.06" y2="1364.88">
   <stop offset="0" style="stop-opacity:1; stop-color:#6900BF"/>
   <stop offset="1" style="stop-opacity:1; stop-color:#0048BD"/>
  </linearGradient>
  <linearGradient id="id1" gradientUnits="userSpaceOnUse" xlink:href="#id0" x1="11107.4" y1="4695.34" x2="-1492.59" y2="4692.16">
  </linearGradient>
 </defs>
 <g id="Layer_x0020_1">
  <metadata id="CorelCorpID_0Corel-Layer"/>
  <path class="fil0" d="M666 4296c64,13 115,45 154,95 39,49 58,106 58,170 0,92 -32,165 -96,219 -65,53 -154,80 -269,80l-513 0 0 -1100 495 0c112,0 200,25 263,76 63,52 95,121 95,209 0,65 -17,119 -51,162 -34,42 -79,72 -136,89zm-398 -91l176 0c44,0 77,-10 101,-29 23,-19 35,-48 35,-86 0,-37 -12,-66 -35,-86 -24,-20 -57,-30 -101,-30l-176 0 0 231zm198 439c45,0 79,-10 104,-31 25,-20 37,-50 37,-88 0,-39 -13,-69 -39,-91 -25,-22 -61,-33 -105,-33l-195 0 0 243 198 0zm797 -513c32,-48 71,-86 118,-113 47,-28 99,-42 157,-42l0 284 -74 0c-67,0 -117,14 -151,43 -33,29 -50,79 -50,151l0 406 -268 0 0 -875 268 0 0 146zm500 -236c-47,0 -85,-14 -115,-42 -30,-28 -45,-62 -45,-103 0,-42 15,-76 45,-104 30,-28 68,-42 115,-42 46,0 84,14 114,42 30,28 44,62 44,104 0,41 -14,75 -44,103 -30,28 -68,42 -114,42zm133 90l0 875 -268 0 0 -875 268 0zm489 -12c62,0 116,12 162,38 47,25 83,58 108,98l0 -124 268 0 0 874c0,80 -16,153 -48,219 -32,65 -80,117 -146,156 -65,38 -146,58 -244,58 -129,0 -234,-31 -315,-92 -80,-61 -126,-144 -138,-249l265 0c9,34 29,60 60,79 31,20 70,29 116,29 55,0 99,-15 132,-47 33,-32 50,-83 50,-153l0 -124c-26,41 -62,74 -108,99 -46,26 -100,39 -162,39 -72,0 -137,-19 -196,-56 -58,-37 -105,-90 -139,-158 -34,-69 -51,-148 -51,-238 0,-90 17,-168 51,-236 34,-68 81,-121 139,-157 59,-37 124,-55 196,-55zm270 450c0,-67 -19,-120 -56,-158 -37,-39 -82,-58 -135,-58 -54,0 -99,19 -136,57 -37,38 -56,90 -56,157 0,67 19,120 56,159 37,40 82,59 136,59 53,0 98,-19 135,-58 37,-38 56,-91 56,-158zm962 -447c100,0 181,33 242,100 60,66 90,157 90,273l0 511 -266 0 0 -475c0,-58 -15,-104 -46,-136 -30,-33 -71,-49 -122,-49 -51,0 -92,16 -122,49 -30,32 -46,78 -46,136l0 475 -268 0 0 -1160 268 0 0 403c28,-39 65,-69 112,-92 47,-23 100,-35 158,-35zm969 657l0 227 -137 0c-97,0 -173,-23 -227,-71 -54,-48 -82,-125 -82,-233l0 -348 -106 0 0 -223 106 0 0 -213 268 0 0 213 176 0 0 223 -176 0 0 351c0,26 7,45 19,57 13,11 34,17 63,17l96 0zm1004 227l-229 -415 -64 0 0 415 -268 0 0 -1100 450 0c87,0 161,15 222,45 61,30 107,72 137,125 30,53 45,111 45,176 0,73 -20,139 -61,196 -42,58 -103,98 -183,122l254 436 -303 0zm-293 -605l166 0c49,0 86,-12 111,-36 24,-24 37,-58 37,-102 0,-42 -13,-75 -37,-99 -25,-24 -62,-36 -111,-36l-166 0 0 273zm1541 154c0,25 -2,51 -5,78l-607 0c5,55 22,96 53,125 31,29 69,43 114,43 67,0 113,-28 139,-85l286 0c-15,58 -41,110 -80,156 -38,45 -86,82 -143,108 -58,26 -122,39 -193,39 -86,0 -162,-18 -229,-55 -67,-37 -119,-89 -157,-157 -37,-68 -56,-147 -56,-238 0,-91 18,-170 56,-238 37,-68 89,-121 156,-157 66,-37 143,-55 230,-55 85,0 160,18 226,53 66,36 117,86 154,152 37,66 56,143 56,231zm-274 -71c0,-46 -16,-82 -48,-110 -31,-27 -70,-40 -117,-40 -45,0 -83,13 -114,39 -31,26 -50,63 -57,111l336 0zm865 295l0 227 -137 0c-97,0 -173,-23 -227,-71 -55,-48 -82,-125 -82,-233l0 -348 -106 0 0 -223 106 0 0 -213 268 0 0 213 176 0 0 223 -176 0 0 351c0,26 7,45 19,57 13,11 34,17 63,17l96 0zm974 -648l0 875 -268 0 0 -119c-27,39 -64,70 -110,93 -47,24 -98,36 -155,36 -67,0 -126,-15 -177,-45 -51,-30 -91,-73 -119,-129 -28,-57 -42,-123 -42,-199l0 -512 266 0 0 476c0,58 15,104 46,136 30,32 71,49 122,49 52,0 94,-17 124,-49 30,-32 45,-78 45,-136l0 -476 268 0zm423 146c32,-48 71,-86 118,-113 47,-28 99,-42 157,-42l0 284 -74 0c-67,0 -117,14 -150,43 -34,29 -51,79 -51,151l0 406 -268 0 0 -875 268 0 0 146zm898 -155c103,0 185,33 246,100 61,66 91,157 91,273l0 511 -266 0 0 -475c0,-58 -15,-104 -46,-136 -30,-33 -71,-49 -122,-49 -51,0 -92,16 -122,49 -30,32 -46,78 -46,136l0 475 -268 0 0 -875 268 0 0 116c28,-38 64,-69 110,-91 46,-23 98,-34 155,-34z"/>
  <g id="_2368972203856">
   <path class="fil1" d="M3585 1842l0 -1185 0 -275c0,-135 32,-233 96,-292 63,-60 166,-90 309,-90l1069 0c157,0 294,9 409,27 116,19 220,53 311,106 78,43 147,98 207,165 60,66 106,140 137,220 32,81 48,166 48,255 0,239 -160,454 -388,639l0 0c74,36 140,79 199,126 -127,121 -256,220 -386,298l0 -1095 0 -19c0,-65 -53,-118 -118,-118l-279 0c-65,0 -118,53 -118,118l0 19 0 1310c-24,6 -48,11 -71,16l0 -730 0 -19c0,-65 -53,-118 -118,-118l-279 0c-65,0 -119,53 -119,118l0 19 0 762c-23,-2 -47,-4 -70,-6l0 -167 0 -18c0,-65 -53,-118 -118,-118l-280 0c-65,0 -118,53 -118,118l0 18 0 50c-119,-40 -228,-87 -323,-134zm2216 1132c-62,25 -131,45 -205,60l0 -697 0 -50c248,-109 469,-254 651,-406 167,382 38,851 -446,1093zm-720 -479l0 586c-23,0 -47,1 -71,1l0 -575 0 -50 0 0c168,-24 329,-68 481,-126 -131,50 -268,89 -410,114l0 50zm411 -165c6,-2 13,-5 19,-7 -6,2 -13,5 -19,7zm21 -8c6,-2 12,-5 18,-7 -6,2 -12,5 -18,7zm22 -9c5,-2 11,-4 17,-7 -6,3 -12,5 -17,7zm21 -8c5,-2 9,-4 14,-7 -5,3 -9,5 -14,7zm21 -9c4,-2 9,-4 13,-6 -4,2 -9,4 -13,6zm-1083 214l0 572 -70 0 0 -583 0 -50c23,4 47,8 70,11l0 50zm-586 -177l0 745c-103,-10 -180,-39 -230,-87 -62,-61 -93,-159 -93,-292l0 -162 0 -59 0 -84 0 -107 0 -128 0 -68c108,76 216,140 323,192l0 50zm586 127c11,1 21,2 32,4 -11,-2 -21,-3 -32,-4zm48 5c10,1 19,2 29,3 -10,-1 -19,-2 -29,-3zm47 5c9,0 18,1 27,2 -9,-1 -18,-2 -27,-2zm47 3c8,0 17,1 25,1 -8,0 -17,-1 -25,-1zm46 2c8,0 16,0 24,0 -8,0 -16,0 -24,0zm47 1c7,0 14,0 21,0 -7,0 -14,0 -21,0zm47 -1c6,0 12,0 18,0 -6,0 -12,0 -18,0zm46 -1c6,0 11,-1 16,-1 -5,0 -10,1 -16,1zm46 -3c4,0 9,0 13,-1 -4,1 -9,1 -13,1z"/>
   <path class="fil2" d="M6401 1326l0 0 -86 -60 -7 -5 -93 -66c-71,-65 -79,-149 10,-190 84,-31 168,-63 253,-95 86,-32 172,-65 259,-97 86,-18 167,29 172,128 -2,90 -4,180 -6,270 -1,92 -3,184 -5,276 -15,84 -89,121 -182,62l-84 -59 0 0 -9 -7 -75 -52 0 0 -147 -105z"/>
   <path class="fil2" d="M3153 1713c66,60 1960,1493 3313,-641 101,192 145,43 246,235 -21,55 -45,118 -87,176 -482,667 -2054,1732 -3472,230z"/>
   <g>
    <path class="fil3" d="M5596 2287l0 747c-45,10 -92,17 -141,23 -109,14 -234,22 -374,24l0 -636c181,-31 354,-87 515,-158z"/>
    <path class="fil3" d="M4424 2449l0 633 -434 0c-29,0 -56,-2 -82,-4l0 -795c174,83 346,137 516,166z"/>
    <path class="fil3" d="M5010 2457l0 625 -12 0 -504 0 0 -622c177,23 350,20 516,-3z"/>
   </g>
   <path class="fil3" d="M5199 604l279 0c65,0 118,53 118,118l0 1114c-172,104 -345,173 -515,215l0 -1329c0,-65 53,-118 118,-118z"/>
   <path class="fil3" d="M4026 1790l280 0c65,0 118,53 118,118l0 185c-186,-20 -360,-63 -516,-117l0 -68c0,-65 53,-118 118,-118z"/>
   <path class="fil3" d="M4613 1200l279 0c65,0 118,53 118,118l0 749c-177,36 -350,44 -516,32l0 -781c0,-65 54,-118 119,-118z"/>
  </g>
 </g>
</svg>
