<?xml version="1.0" encoding="UTF-8"?>
<svg width="168px" height="52px" viewBox="0 0 168 52" version="1.1" xmlns="http://www.w3.org/2000/svg" xmlns:xlink="http://www.w3.org/1999/xlink">
    <!-- Generator: Sketch 49.3 (51167) - http://www.bohemiancoding.com/sketch -->
    <title>Logo</title>
    <desc>Created with Sketch.</desc>
    <defs>
        <polygon id="path-1" points="0 52 166.835815 52 166.835815 0.272071429 0 0.272071429"></polygon>
    </defs>
    <g id="Page-1" stroke="none" stroke-width="1" fill="none" fill-rule="evenodd">
        <g id="Desktop" transform="translate(-43.000000, -20.000000)">
            <g id="Navigation-/-Header">
                <g id="Logo" transform="translate(44.000000, 20.000000)">
                    <polygon id="Fill-1" fill="#231F20" points="83 19.0250307 88.8182194 19.0250307 88.8182194 34 91.1808159 34 91.1808159 19.0250307 97 19.0250307 97 17 83 17"></polygon>
                    <polygon id="Stroke-2" stroke="#231F20" stroke-width="0.5" points="83 19.0250307 88.8182194 19.0250307 88.8182194 34 91.1808159 34 91.1808159 19.0250307 97 19.0250307 97 17 83 17"></polygon>
                    <g id="Group-28">
                        <path d="M77.1921848,25.89535 C76.5936118,25.4505643 75.745477,25.1004929 74.6449657,24.8432786 L72.3641961,24.3121357 C70.8274208,23.9499929 69.8413702,23.6482071 69.4060444,23.4067786 C68.740859,23.0297786 68.4096736,22.4336357 68.4096736,21.6192786 C68.4096736,20.8801357 68.6901961,20.2310643 69.2531174,19.6729929 C69.8160388,19.1149214 70.740168,18.8354214 72.0255051,18.8354214 C73.6185725,18.8354214 74.748168,19.2699929 75.4124152,20.13635 C75.7698702,20.6117786 76.0034826,21.2952071 76.1141904,22.18385 L78.2514152,22.18385 C78.2514152,20.3369214 77.6519039,18.99235 76.4547579,18.1510643 C75.2566736,17.3107071 73.8024601,16.8900643 72.0893028,16.8900643 C71.5367017,16.8900643 71.0253815,16.9374214 70.5468983,17.0219214 L86.7702916,1.95213571 L85.4887073,0.600135714 L51.4113253,32.2542071 L51.4113253,31.9487071 L41.2712354,31.9487071 L41.2712354,26.3141357 L50.4843815,26.3141357 L50.4843815,24.3910643 L41.2712354,24.3910643 L41.2712354,19.3452071 L51.2396343,19.3452071 L51.2396343,17.3079214 L39.0542635,17.3079214 L39.0542635,33.9284214 L49.6090388,33.9284214 L31.9614545,50.3195643 L33.2430388,51.6715643 L66.3465669,20.9237786 C66.2818309,21.2664214 66.2489938,21.6257786 66.2489938,22.0037071 C66.2489938,23.3835643 66.7659433,24.4217071 67.7989039,25.1144214 C68.397477,25.5146357 69.4154264,25.8804929 70.8555669,26.2119929 L73.0594039,26.7217786 C74.2556118,27.00035 75.1337691,27.3281357 75.694814,27.7060643 C76.2483534,28.0904929 76.525123,28.73585 76.525123,29.6402786 C76.525123,30.8474214 75.8721343,31.6849929 74.5652185,32.1520643 C73.8887747,32.3934929 73.1410275,32.5132786 72.3191624,32.5132786 C70.4840388,32.5132786 69.2024545,31.9644929 68.4753478,30.8622786 C68.0944376,30.2735643 67.8777129,29.5084214 67.82705,28.5649929 L65.6888871,28.5649929 C65.665432,30.36085 66.2302298,31.7824929 67.3832803,32.83085 C68.5344545,33.8875643 70.1293983,34.4149929 72.1662354,34.4149929 C73.9122298,34.4149929 75.4452522,34.0194214 76.7643646,33.22735 C78.083477,32.43435 78.7430331,31.1185643 78.7430331,29.2781357 C78.7430331,27.79985 78.2260837,26.6725643 77.1921848,25.89535" id="Fill-3" fill="#231F20"></path>
                        <path d="M77.1921848,25.89535 C76.5936118,25.4505643 75.745477,25.1004929 74.6449657,24.8432786 L72.3641961,24.3121357 C70.8274208,23.9499929 69.8413702,23.6482071 69.4060444,23.4067786 C68.740859,23.0297786 68.4096736,22.4336357 68.4096736,21.6192786 C68.4096736,20.8801357 68.6901961,20.2310643 69.2531174,19.6729929 C69.8160388,19.1149214 70.740168,18.8354214 72.0255051,18.8354214 C73.6185725,18.8354214 74.748168,19.2699929 75.4124152,20.13635 C75.7698702,20.6117786 76.0034826,21.2952071 76.1141904,22.18385 L78.2514152,22.18385 C78.2514152,20.3369214 77.6519039,18.99235 76.4547579,18.1510643 C75.2566736,17.3107071 73.8024601,16.8900643 72.0893028,16.8900643 C71.5367017,16.8900643 71.0253815,16.9374214 70.5468983,17.0219214 L86.7702916,1.95213571 L85.4887073,0.600135714 L51.4113253,32.2542071 L51.4113253,31.9487071 L41.2712354,31.9487071 L41.2712354,26.3141357 L50.4843815,26.3141357 L50.4843815,24.3910643 L41.2712354,24.3910643 L41.2712354,19.3452071 L51.2396343,19.3452071 L51.2396343,17.3079214 L39.0542635,17.3079214 L39.0542635,33.9284214 L49.6090388,33.9284214 L31.9614545,50.3195643 L33.2430388,51.6715643 L66.3465669,20.9237786 C66.2818309,21.2664214 66.2489938,21.6257786 66.2489938,22.0037071 C66.2489938,23.3835643 66.7659433,24.4217071 67.7989039,25.1144214 C68.397477,25.5146357 69.4154264,25.8804929 70.8555669,26.2119929 L73.0594039,26.7217786 C74.2556118,27.00035 75.1337691,27.3281357 75.694814,27.7060643 C76.2483534,28.0904929 76.525123,28.73585 76.525123,29.6402786 C76.525123,30.8474214 75.8721343,31.6849929 74.5652185,32.1520643 C73.8887747,32.3934929 73.1410275,32.5132786 72.3191624,32.5132786 C70.4840388,32.5132786 69.2024545,31.9644929 68.4753478,30.8622786 C68.0944376,30.2735643 67.8777129,29.5084214 67.82705,28.5649929 L65.6888871,28.5649929 C65.665432,30.36085 66.2302298,31.7824929 67.3832803,32.83085 C68.5344545,33.8875643 70.1293983,34.4149929 72.1662354,34.4149929 C73.9122298,34.4149929 75.4452522,34.0194214 76.7643646,33.22735 C78.083477,32.43435 78.7430331,31.1185643 78.7430331,29.2781357 C78.7430331,27.79985 78.2260837,26.6725643 77.1921848,25.89535 Z" id="Stroke-5" stroke="#231F20" stroke-width="0.5"></path>
                        <path d="M162.925857,30.2775571 C162.029874,31.7010571 160.580351,32.4123429 158.575413,32.4123429 C156.464458,32.4123429 154.938941,31.7799857 153.996986,30.5162 C153.055969,29.2514857 152.58593,27.6989143 152.58593,25.8566286 C152.58593,23.5537714 153.134778,21.8117714 154.231537,20.6306286 C155.329233,19.4485571 156.746857,18.8589143 158.484407,18.8589143 C160.275435,18.8589143 161.68743,19.4550571 162.719452,20.6473429 C163.752413,21.8405571 164.269362,23.4135571 164.269362,25.3691286 C164.269362,27.2188429 163.820902,28.8549857 162.925857,30.2775571 M164.931733,19.6844143 C163.506604,17.7984857 161.312149,16.8559857 158.34743,16.8559857 C155.513121,16.8559857 153.370267,17.8820571 151.922621,19.9332714 C150.794902,21.5322714 150.231042,23.4562714 150.231042,25.7034143 C150.231042,28.1919857 150.890598,30.2515571 152.208772,31.8812 C153.686441,33.5702714 155.717649,34.4152714 158.301458,34.4152714 C161.068216,34.4152714 163.197935,33.4495571 164.691553,31.5190571 C165.964694,29.8736286 166.600795,27.8122 166.600795,25.3301286 C166.600795,23.0365571 166.044441,21.1552714 164.931733,19.6844143" id="Fill-7" fill="#231F20"></path>
                        <path d="M162.925857,30.2775571 C162.029874,31.7010571 160.580351,32.4123429 158.575413,32.4123429 C156.464458,32.4123429 154.938941,31.7799857 153.996986,30.5162 C153.055969,29.2514857 152.58593,27.6989143 152.58593,25.8566286 C152.58593,23.5537714 153.134778,21.8117714 154.231537,20.6306286 C155.329233,19.4485571 156.746857,18.8589143 158.484407,18.8589143 C160.275435,18.8589143 161.68743,19.4550571 162.719452,20.6473429 C163.752413,21.8405571 164.269362,23.4135571 164.269362,25.3691286 C164.269362,27.2188429 163.820902,28.8549857 162.925857,30.2775571 Z M164.931733,19.6844143 C163.506604,17.7984857 161.312149,16.8559857 158.34743,16.8559857 C155.513121,16.8559857 153.370267,17.8820571 151.922621,19.9332714 C150.794902,21.5322714 150.231042,23.4562714 150.231042,25.7034143 C150.231042,28.1919857 150.890598,30.2515571 152.208772,31.8812 C153.686441,33.5702714 155.717649,34.4152714 158.301458,34.4152714 C161.068216,34.4152714 163.197935,33.4495571 164.691553,31.5190571 C165.964694,29.8736286 166.600795,27.8122 166.600795,25.3301286 C166.600795,23.0365571 166.044441,21.1552714 164.931733,19.6844143 Z" id="Stroke-9" stroke="#231F20" stroke-width="0.5"></path>
                        <polygon id="Fill-11" fill="#231F20" points="0.234832022 19.2883786 5.89312978 19.2883786 5.89312978 33.9282357 8.18984888 33.9282357 8.18984888 19.2883786 13.8490848 19.2883786 13.8490848 17.3086643 0.234832022 17.3086643"></polygon>
                        <polygon id="Stroke-13" stroke="#231F20" stroke-width="0.5" points="0.234832022 19.2883786 5.89312978 19.2883786 5.89312978 33.9282357 8.18984888 33.9282357 8.18984888 19.2883786 13.8490848 19.2883786 13.8490848 17.3086643 0.234832022 17.3086643"></polygon>
                        <polygon id="Fill-15" fill="#231F20" points="32.2463865 33.9283286 32.2463865 17.3087571 29.9487292 17.3087571 29.9487292 24.1764714 21.3182067 24.1764714 21.3182067 17.3087571 19.0205494 17.3087571 19.0205494 33.9283286 21.3182067 33.9283286 21.3182067 26.1552571 29.9487292 26.1552571 29.9487292 33.9283286"></polygon>
                        <polygon id="Stroke-17" stroke="#231F20" stroke-width="0.5" points="32.2463865 33.9283286 32.2463865 17.3087571 29.9487292 17.3087571 29.9487292 24.1764714 21.3182067 24.1764714 21.3182067 17.3087571 19.0205494 17.3087571 19.0205494 33.9283286 21.3182067 33.9283286 21.3182067 26.1552571 29.9487292 26.1552571 29.9487292 33.9283286"></polygon>
                        <path d="M113.015186,27.5816357 C113.015186,28.7804214 112.827546,29.7349929 112.450388,30.4444214 C111.751428,31.7481357 110.430439,32.4009214 108.487422,32.4009214 C106.866208,32.4009214 105.714096,31.79735 105.030147,30.5911357 C104.569489,29.7916357 104.33963,28.78785 104.33963,27.5816357 L104.33963,17.30885 L102.041034,17.30885 L102.041034,26.6419214 C102.041034,28.6857071 102.320619,30.2596357 102.878849,31.3599929 C103.894922,33.3666357 105.82668,34.3694929 108.67131,34.3694929 C111.515939,34.3694929 113.450512,33.3666357 114.475967,31.3599929 C115.033259,30.2596357 115.312843,28.6857071 115.312843,26.6419214 L115.312843,17.30885 L113.015186,17.30885 L113.015186,27.5816357 Z" id="Fill-19" fill="#231F20"></path>
                        <path d="M113.015186,27.5816357 C113.015186,28.7804214 112.827546,29.7349929 112.450388,30.4444214 C111.751428,31.7481357 110.430439,32.4009214 108.487422,32.4009214 C106.866208,32.4009214 105.714096,31.79735 105.030147,30.5911357 C104.569489,29.7916357 104.33963,28.78785 104.33963,27.5816357 L104.33963,17.30885 L102.041034,17.30885 L102.041034,26.6419214 C102.041034,28.6857071 102.320619,30.2596357 102.878849,31.3599929 C103.894922,33.3666357 105.82668,34.3694929 108.67131,34.3694929 C111.515939,34.3694929 113.450512,33.3666357 114.475967,31.3599929 C115.033259,30.2596357 115.312843,28.6857071 115.312843,26.6419214 L115.312843,17.30885 L113.015186,17.30885 L113.015186,27.5816357 Z" id="Stroke-21" stroke="#231F20" stroke-width="0.5"></path>
                        <mask id="mask-2" fill="white">
                            <use xlink:href="#path-1"></use>
                        </mask>
                        <g id="Clip-24"></g>
                        <polygon id="Fill-23" fill="#231F20" mask="url(#mask-2)" points="141.981899 33.9281429 144.279556 33.9281429 144.279556 17.3085714 141.981899 17.3085714"></polygon>
                        <polygon id="Stroke-25" stroke="#231F20" stroke-width="0.5" mask="url(#mask-2)" points="141.981899 33.9281429 144.279556 33.9281429 144.279556 17.3085714 141.981899 17.3085714"></polygon>
                        <path d="M133.14075,27.4909143 C132.94748,28.5392714 132.630368,29.4000571 132.190351,30.0704857 C131.638688,30.9080571 130.932222,31.4726286 130.067199,31.7669857 C129.583087,31.9257714 128.963874,32.0047 128.211435,32.0047 L124.244716,32.0047 L124.244716,19.2433429 L128.189857,19.2433429 C129.985576,19.2433429 131.286862,19.8125571 132.096531,20.9519143 C132.904323,22.0903429 133.308688,23.6893429 133.308688,25.7489143 C133.308688,26.2847 133.252396,26.8650571 133.14075,27.4909143 M128.658958,17.3082 L121.945183,17.3082 L121.945183,33.9287 L128.635503,33.9287 C131.478256,33.9287 133.482256,32.6686286 134.647503,30.1494143 C135.310812,28.7240571 135.640121,27.1278429 135.640121,25.3635571 C135.640121,23.0783429 135.080014,21.2035571 133.959801,19.7410571 C132.703548,18.1197714 130.936913,17.3082 128.658958,17.3082" id="Fill-26" fill="#231F20" mask="url(#mask-2)"></path>
                        <path d="M133.14075,27.4909143 C132.94748,28.5392714 132.630368,29.4000571 132.190351,30.0704857 C131.638688,30.9080571 130.932222,31.4726286 130.067199,31.7669857 C129.583087,31.9257714 128.963874,32.0047 128.211435,32.0047 L124.244716,32.0047 L124.244716,19.2433429 L128.189857,19.2433429 C129.985576,19.2433429 131.286862,19.8125571 132.096531,20.9519143 C132.904323,22.0903429 133.308688,23.6893429 133.308688,25.7489143 C133.308688,26.2847 133.252396,26.8650571 133.14075,27.4909143 Z M128.658958,17.3082 L121.945183,17.3082 L121.945183,33.9287 L128.635503,33.9287 C131.478256,33.9287 133.482256,32.6686286 134.647503,30.1494143 C135.310812,28.7240571 135.640121,27.1278429 135.640121,25.3635571 C135.640121,23.0783429 135.080014,21.2035571 133.959801,19.7410571 C132.703548,18.1197714 130.936913,17.3082 128.658958,17.3082 Z" id="Stroke-27" stroke="#231F20" stroke-width="0.5" mask="url(#mask-2)"></path>
                    </g>
                </g>
            </g>
        </g>
    </g>
</svg>