<svg width="168" height="52" xmlns="http://www.w3.org/2000/svg" xmlns:xlink="http://www.w3.org/1999/xlink"><defs><path id="a" d="M0 52h166.836V.272H0z"/></defs><g fill="none" fill-rule="evenodd"><path fill="#231F20" d="M84 19.025h5.818V34h2.363V19.025H98V17H84z"/><path stroke="#231F20" stroke-width=".5" d="M84 19.025h5.818V34h2.363V19.025H98V17H84z"/><g transform="translate(1)"><path d="M77.192 25.895c-.598-.444-1.447-.795-2.547-1.052l-2.28-.53c-1.538-.363-2.524-.665-2.959-.906-.665-.377-.996-.973-.996-1.788 0-.739.28-1.388.843-1.946s1.487-.838 2.773-.838c1.593 0 2.722.435 3.386 1.301.358.476.591 1.16.702 2.048h2.137c0-1.847-.6-3.192-1.796-4.033-1.198-.84-2.653-1.26-4.366-1.26-.552 0-1.064.046-1.542.13L86.77 1.953 85.49.6 51.41 32.254v-.305h-10.14v-5.635h9.213v-1.923h-9.213v-5.046h9.969v-2.037H39.054v16.62H49.61L31.961 50.32l1.282 1.352 33.104-30.748a5.804 5.804 0 00-.098 1.08c0 1.38.517 2.418 1.55 3.11.598.4 1.616.766 3.057 1.098l2.203.51c1.197.278 2.075.606 2.636.984.553.384.83 1.03.83 1.934 0 1.207-.653 2.045-1.96 2.512-.676.241-1.424.361-2.246.361-1.835 0-3.117-.549-3.844-1.65-.38-.59-.597-1.355-.648-2.298h-2.138c-.024 1.796.541 3.217 1.694 4.266 1.151 1.057 2.746 1.584 4.783 1.584 1.746 0 3.28-.396 4.598-1.188 1.32-.793 1.979-2.108 1.979-3.949 0-1.478-.517-2.605-1.55-3.383" fill="#231F20"/><path d="M77.192 25.895c-.598-.444-1.447-.795-2.547-1.052l-2.28-.53c-1.538-.363-2.524-.665-2.959-.906-.665-.377-.996-.973-.996-1.788 0-.739.28-1.388.843-1.946s1.487-.838 2.773-.838c1.593 0 2.722.435 3.386 1.301.358.476.591 1.16.702 2.048h2.137c0-1.847-.6-3.192-1.796-4.033-1.198-.84-2.653-1.26-4.366-1.26-.552 0-1.064.046-1.542.13L86.77 1.953 85.49.6 51.41 32.254v-.305h-10.14v-5.635h9.213v-1.923h-9.213v-5.046h9.969v-2.037H39.054v16.62H49.61L31.961 50.32l1.282 1.352 33.104-30.748a5.804 5.804 0 00-.098 1.08c0 1.38.517 2.418 1.55 3.11.598.4 1.616.766 3.057 1.098l2.203.51c1.197.278 2.075.606 2.636.984.553.384.83 1.03.83 1.934 0 1.207-.653 2.045-1.96 2.512-.676.241-1.424.361-2.246.361-1.835 0-3.117-.549-3.844-1.65-.38-.59-.597-1.355-.648-2.298h-2.138c-.024 1.796.541 3.217 1.694 4.266 1.151 1.057 2.746 1.584 4.783 1.584 1.746 0 3.28-.396 4.598-1.188 1.32-.793 1.979-2.108 1.979-3.949 0-1.478-.517-2.605-1.55-3.383z" stroke="#231F20" stroke-width=".5"/><path d="M162.926 30.278c-.896 1.423-2.346 2.134-4.35 2.134-2.112 0-3.637-.632-4.579-1.896-.941-1.265-1.411-2.817-1.411-4.66 0-2.302.549-4.044 1.646-5.225 1.097-1.182 2.515-1.772 4.252-1.772 1.791 0 3.203.596 4.235 1.788 1.033 1.194 1.55 2.767 1.55 4.722 0 1.85-.448 3.486-1.343 4.909m2.006-10.594c-1.425-1.886-3.62-2.828-6.585-2.828-2.834 0-4.977 1.026-6.424 3.077-1.128 1.6-1.692 3.523-1.692 5.77 0 2.489.66 4.549 1.978 6.178 1.477 1.69 3.509 2.534 6.092 2.534 2.767 0 4.897-.965 6.39-2.896 1.274-1.645 1.91-3.707 1.91-6.189 0-2.293-.557-4.175-1.67-5.646" fill="#231F20"/><path d="M162.926 30.278c-.896 1.423-2.346 2.134-4.35 2.134-2.112 0-3.637-.632-4.579-1.896-.941-1.265-1.411-2.817-1.411-4.66 0-2.302.549-4.044 1.646-5.225 1.097-1.182 2.515-1.772 4.252-1.772 1.791 0 3.203.596 4.235 1.788 1.033 1.194 1.55 2.767 1.55 4.722 0 1.85-.448 3.486-1.343 4.909zm2.006-10.594c-1.425-1.886-3.62-2.828-6.585-2.828-2.834 0-4.977 1.026-6.424 3.077-1.128 1.6-1.692 3.523-1.692 5.77 0 2.489.66 4.549 1.978 6.178 1.477 1.69 3.509 2.534 6.092 2.534 2.767 0 4.897-.965 6.39-2.896 1.274-1.645 1.91-3.707 1.91-6.189 0-2.293-.557-4.175-1.67-5.646z" stroke="#231F20" stroke-width=".5"/><path fill="#231F20" d="M.235 19.288h5.658v14.64H8.19v-14.64h5.66v-1.98H.234z"/><path stroke="#231F20" stroke-width=".5" d="M.235 19.288h5.658v14.64H8.19v-14.64h5.66v-1.98H.234z"/><path fill="#231F20" d="M32.246 33.928v-16.62H29.95v6.868h-8.63V17.31H19.02v16.62h2.297v-7.774h8.63v7.773z"/><path stroke="#231F20" stroke-width=".5" d="M32.246 33.928v-16.62H29.95v6.868h-8.63V17.31H19.02v16.62h2.297v-7.774h8.63v7.773z"/><path d="M113.015 27.582c0 1.198-.187 2.153-.565 2.862-.699 1.304-2.02 1.957-3.963 1.957-1.62 0-2.773-.604-3.457-1.81-.46-.8-.69-1.803-.69-3.01V17.31h-2.299v9.333c0 2.044.28 3.618.838 4.718 1.016 2.007 2.948 3.01 5.792 3.01 2.845 0 4.78-1.003 5.805-3.01.557-1.1.837-2.674.837-4.718v-9.333h-2.298v10.273z" fill="#231F20"/><path d="M113.015 27.582c0 1.198-.187 2.153-.565 2.862-.699 1.304-2.02 1.957-3.963 1.957-1.62 0-2.773-.604-3.457-1.81-.46-.8-.69-1.803-.69-3.01V17.31h-2.299v9.333c0 2.044.28 3.618.838 4.718 1.016 2.007 2.948 3.01 5.792 3.01 2.845 0 4.78-1.003 5.805-3.01.557-1.1.837-2.674.837-4.718v-9.333h-2.298v10.273z" stroke="#231F20" stroke-width=".5"/><mask id="b" fill="#fff"><use xlink:href="#a"/></mask><path fill="#231F20" mask="url(#b)" d="M141.982 33.928h2.298v-16.62h-2.298z"/><path stroke="#231F20" stroke-width=".5" mask="url(#b)" d="M141.982 33.928h2.298v-16.62h-2.298z"/><path d="M133.14 27.49c-.193 1.05-.51 1.91-.95 2.58-.551.838-1.258 1.403-2.123 1.697-.484.159-1.103.238-1.856.238h-3.966V19.243h3.945c1.796 0 3.097.57 3.907 1.709.807 1.138 1.212 2.737 1.212 4.797 0 .536-.057 1.116-.168 1.742m-4.482-10.183h-6.714v16.62h6.69c2.843 0 4.847-1.26 6.013-3.779.663-1.425.992-3.021.992-4.785 0-2.286-.56-4.16-1.68-5.623-1.256-1.621-3.023-2.433-5.301-2.433" fill="#231F20" mask="url(#b)"/><path d="M133.14 27.49c-.193 1.05-.51 1.91-.95 2.58-.551.838-1.258 1.403-2.123 1.697-.484.159-1.103.238-1.856.238h-3.966V19.243h3.945c1.796 0 3.097.57 3.907 1.709.807 1.138 1.212 2.737 1.212 4.797 0 .536-.057 1.116-.168 1.742zm-4.481-10.182h-6.714v16.62h6.69c2.843 0 4.847-1.26 6.013-3.779.663-1.425.992-3.021.992-4.785 0-2.286-.56-4.16-1.68-5.623-1.256-1.621-3.023-2.433-5.301-2.433z" stroke="#231F20" stroke-width=".5" mask="url(#b)"/></g></g></svg>